<svg width="30" height="30" viewBox="0 0 30 30" fill="none" xmlns="http://www.w3.org/2000/svg">
<circle cx="15" cy="15" r="15" fill="#1D2E53"/>
<path d="M23.9322 12.7946C23.6957 10.4071 22.5353 8.34899 20.8538 6.94976C19.1691 5.54726 16.9634 4.80362 14.633 5.04497C12.2962 5.28633 10.279 6.4703 8.91083 8.18917C7.53943 9.90805 6.80739 12.1618 7.04395 14.5395C7.16862 15.7822 7.54263 16.9368 8.11164 17.9577C8.45369 18.5709 8.85328 19.0797 9.26886 19.6277C9.43509 19.8495 9.58534 20.0549 9.71641 20.2539C9.72919 20.2735 9.74198 20.2963 9.75477 20.3159C9.99452 20.7236 10.1512 21.19 10.1991 21.6955C10.2854 22.6023 10.0009 23.4633 9.47345 24.1124C9.43829 24.1581 9.39994 24.2005 9.36158 24.2429C10.4101 24.8136 11.6248 25.0909 12.8907 24.9735V24.9767L12.9611 24.9669C14.6969 24.7843 16.1994 23.9036 17.2223 22.6218C17.3694 22.4392 17.5068 22.2467 17.6315 22.0478C19.4185 21.5749 20.9561 20.5311 22.0686 19.1384C23.44 17.4261 24.1688 15.1723 23.9322 12.7946ZM19.9587 17.3935C19.1787 18.3719 18.1366 19.0536 16.9474 19.3667L15.918 19.6374L15.3426 20.5474C15.2723 20.6583 15.1956 20.766 15.1157 20.8671C14.5563 21.5683 13.789 22.025 12.9291 22.175C12.9355 21.9793 12.9291 21.7803 12.9163 21.5814V21.5683L12.9035 21.4379C12.8204 20.5344 12.5455 19.6766 12.0884 18.8971C12.0564 18.8449 12.0244 18.7894 11.9893 18.734C11.7943 18.4339 11.5833 18.1502 11.4234 17.9349L11.2796 17.7457C10.9599 17.325 10.6818 16.9597 10.4772 16.5878C10.0776 15.8735 9.83468 15.0908 9.75157 14.259C9.59493 12.6935 10.0457 11.1605 11.0207 9.94066C11.9925 8.72082 13.3735 7.96412 14.9111 7.8043C15.1093 7.78473 15.3075 7.77495 15.5057 7.77495C16.8195 7.77495 18.111 8.24462 19.1371 9.09916C20.3295 10.0907 21.0712 11.503 21.2278 13.0751C21.3845 14.6407 20.9337 16.1736 19.9587 17.3935Z" fill="white"/>
<path fill-rule="evenodd" clip-rule="evenodd" d="M15.4746 10.5L16.9746 12L15.4746 13.5L13.9746 12L15.4746 10.5ZM13.7246 12.25L15.2246 13.75L13.7246 15.25L12.2246 13.75L13.7246 12.25ZM18.7246 13.75L17.2246 12.25L15.7246 13.75L17.2246 15.25L18.7246 13.75ZM15.4746 14L16.9746 15.5L15.4746 17L13.9746 15.5L15.4746 14Z" fill="white"/>
</svg>
