<svg width="80" height="20" viewBox="0 0 80 20" fill="none" xmlns="http://www.w3.org/2000/svg">
<path d="M16.9322 7.79458C16.6957 5.40707 15.5353 3.34899 13.8538 1.94976C12.1691 0.547264 9.96338 -0.196385 7.63297 0.0449747C5.29617 0.286334 3.27902 1.4703 1.91083 3.18917C0.539431 4.90805 -0.192608 7.16182 0.0439494 9.53954C0.168622 10.7822 0.542628 11.9368 1.11164 12.9577C1.45369 13.5709 1.85328 14.0797 2.26886 14.6277C2.43509 14.8495 2.58534 15.0549 2.71641 15.2539C2.72919 15.2735 2.74198 15.2963 2.75477 15.3159C2.99452 15.7236 3.15116 16.19 3.19912 16.6955C3.28543 17.6023 3.00091 18.4633 2.47345 19.1124C2.43829 19.1581 2.39994 19.2005 2.36158 19.2429C3.4101 19.8136 4.62483 20.0909 5.89073 19.9735V19.9767L5.96105 19.9669C7.69687 19.7843 9.19936 18.9036 10.2223 17.6218C10.3694 17.4392 10.5068 17.2467 10.6315 17.0478C12.4185 16.5749 13.9561 15.5311 15.0686 14.1384C16.44 12.4261 17.1688 10.1723 16.9322 7.79458ZM12.9587 12.3935C12.1787 13.3719 11.1366 14.0536 9.9474 14.3667L8.91802 14.6374L8.34264 15.5474C8.27231 15.6583 8.1956 15.766 8.11568 15.8671C7.55625 16.5683 6.78901 17.025 5.92909 17.175C5.93549 16.9793 5.92912 16.7803 5.91633 16.5814V16.5683L5.90353 16.4379C5.82042 15.5344 5.54548 14.6766 5.08835 13.8971C5.05638 13.8449 5.02444 13.7894 4.98927 13.734C4.79427 13.4339 4.58328 13.1502 4.42345 12.9349L4.27961 12.7457C3.95994 12.325 3.68182 11.9597 3.47723 11.5878C3.07764 10.8735 2.83468 10.0908 2.75157 9.25904C2.59493 7.69347 3.04566 6.16051 4.02066 4.94066C4.99246 3.72082 6.37346 2.96412 7.91109 2.8043C8.10928 2.78473 8.30747 2.77495 8.50567 2.77495C9.81953 2.77495 11.111 3.24462 12.1371 4.09916C13.3295 5.0907 14.0712 6.50298 14.2278 8.07508C14.3845 9.64065 13.9337 11.1736 12.9587 12.3935Z" fill="white"/>
<path fill-rule="evenodd" clip-rule="evenodd" d="M8.47461 5.5L9.97461 7L8.47461 8.5L6.97461 7L8.47461 5.5ZM6.72461 7.25L8.22461 8.75L6.72461 10.25L5.22461 8.75L6.72461 7.25ZM11.7246 8.75L10.2246 7.25L8.72461 8.75L10.2246 10.25L11.7246 8.75ZM8.47461 9L9.97461 10.5L8.47461 12L6.97461 10.5L8.47461 9Z" fill="white"/>
<path d="M25.4095 13.577C24.8742 13.577 24.3902 13.4853 23.9575 13.302C23.5322 13.1187 23.1949 12.8547 22.9455 12.51C22.6962 12.1653 22.5679 11.7583 22.5605 11.289H24.2105C24.2325 11.6043 24.3425 11.8537 24.5405 12.037C24.7459 12.2203 25.0245 12.312 25.3765 12.312C25.7359 12.312 26.0182 12.2277 26.2235 12.059C26.4289 11.883 26.5315 11.6557 26.5315 11.377C26.5315 11.1497 26.4619 10.9627 26.3225 10.816C26.1832 10.6693 26.0072 10.5557 25.7945 10.475C25.5892 10.387 25.3032 10.2917 24.9365 10.189C24.4379 10.0423 24.0309 9.89932 23.7155 9.75999C23.4075 9.61332 23.1399 9.39699 22.9125 9.11099C22.6925 8.81766 22.5825 8.42899 22.5825 7.94499C22.5825 7.49032 22.6962 7.09432 22.9235 6.75699C23.1509 6.41966 23.4699 6.16299 23.8805 5.98699C24.2912 5.80366 24.7605 5.71199 25.2885 5.71199C26.0805 5.71199 26.7222 5.90632 27.2135 6.29499C27.7122 6.67632 27.9872 7.21166 28.0385 7.90099H26.3445C26.3299 7.63699 26.2162 7.42066 26.0035 7.25199C25.7982 7.07599 25.5232 6.98799 25.1785 6.98799C24.8779 6.98799 24.6359 7.06499 24.4525 7.21899C24.2765 7.37299 24.1885 7.59666 24.1885 7.88999C24.1885 8.09532 24.2545 8.26766 24.3865 8.40699C24.5259 8.53899 24.6945 8.64899 24.8925 8.73699C25.0979 8.81766 25.3839 8.91299 25.7505 9.02299C26.2492 9.16966 26.6562 9.31632 26.9715 9.46299C27.2869 9.60966 27.5582 9.82966 27.7855 10.123C28.0129 10.4163 28.1265 10.8013 28.1265 11.278C28.1265 11.6887 28.0202 12.07 27.8075 12.422C27.5949 12.774 27.2832 13.0563 26.8725 13.269C26.4619 13.4743 25.9742 13.577 25.4095 13.577Z" fill="white"/>
<path d="M32.1177 13.599C31.531 13.599 31.003 13.4707 30.5337 13.214C30.0643 12.95 29.694 12.5797 29.4227 12.103C29.1587 11.6263 29.0267 11.0763 29.0267 10.453C29.0267 9.82966 29.1623 9.27966 29.4337 8.80299C29.7123 8.32632 30.09 7.95966 30.5667 7.70299C31.0433 7.43899 31.575 7.30699 32.1617 7.30699C32.7483 7.30699 33.28 7.43899 33.7567 7.70299C34.2333 7.95966 34.6073 8.32632 34.8787 8.80299C35.1573 9.27966 35.2967 9.82966 35.2967 10.453C35.2967 11.0763 35.1537 11.6263 34.8677 12.103C34.589 12.5797 34.2077 12.95 33.7237 13.214C33.247 13.4707 32.7117 13.599 32.1177 13.599ZM32.1177 12.257C32.3963 12.257 32.6567 12.191 32.8987 12.059C33.148 11.9197 33.346 11.7143 33.4927 11.443C33.6393 11.1717 33.7127 10.8417 33.7127 10.453C33.7127 9.87366 33.5587 9.42999 33.2507 9.12199C32.95 8.80666 32.5797 8.64899 32.1397 8.64899C31.6997 8.64899 31.3293 8.80666 31.0287 9.12199C30.7353 9.42999 30.5887 9.87366 30.5887 10.453C30.5887 11.0323 30.7317 11.4797 31.0177 11.795C31.311 12.103 31.6777 12.257 32.1177 12.257Z" fill="white"/>
<path d="M39.1703 8.67099H38.1033V13.5H36.5413V8.67099H35.8483V7.40599H36.5413V7.09799C36.5413 6.34999 36.754 5.79999 37.1793 5.44799C37.6047 5.09599 38.2463 4.93099 39.1043 4.95299V6.25099C38.7303 6.24366 38.47 6.30599 38.3233 6.43799C38.1767 6.56999 38.1033 6.80832 38.1033 7.15299V7.40599H39.1703V8.67099Z" fill="white"/>
<path d="M41.9113 8.67099V11.619C41.9113 11.8243 41.959 11.9747 42.0543 12.07C42.157 12.158 42.3256 12.202 42.5603 12.202H43.2753V13.5H42.3073C41.0093 13.5 40.3603 12.8693 40.3603 11.608V8.67099H39.6343V7.40599H40.3603V5.89899H41.9113V7.40599H43.2753V8.67099H41.9113Z" fill="white"/>
<path d="M45.873 8.28599C46.071 8.00732 46.3423 7.77632 46.687 7.59299C47.039 7.40232 47.4386 7.30699 47.886 7.30699C48.4066 7.30699 48.876 7.43532 49.294 7.69199C49.7193 7.94866 50.053 8.31532 50.295 8.79199C50.5443 9.26132 50.669 9.80766 50.669 10.431C50.669 11.0543 50.5443 11.608 50.295 12.092C50.053 12.5687 49.7193 12.939 49.294 13.203C48.876 13.467 48.4066 13.599 47.886 13.599C47.4386 13.599 47.0426 13.5073 46.698 13.324C46.3606 13.1407 46.0856 12.9097 45.873 12.631V16.404H44.333V7.40599H45.873V8.28599ZM49.096 10.431C49.096 10.0643 49.019 9.74899 48.865 9.48499C48.7183 9.21366 48.5203 9.00832 48.271 8.86899C48.029 8.72966 47.765 8.65999 47.479 8.65999C47.2003 8.65999 46.9363 8.73332 46.687 8.87999C46.445 9.01932 46.247 9.22466 46.093 9.49599C45.9463 9.76732 45.873 10.0863 45.873 10.453C45.873 10.8197 45.9463 11.1387 46.093 11.41C46.247 11.6813 46.445 11.8903 46.687 12.037C46.9363 12.1763 47.2003 12.246 47.479 12.246C47.765 12.246 48.029 12.1727 48.271 12.026C48.5203 11.8793 48.7183 11.6703 48.865 11.399C49.019 11.1277 49.096 10.805 49.096 10.431Z" fill="white"/>
<path d="M55.17 7.31799C55.632 7.31799 56.0427 7.42066 56.402 7.62599C56.7614 7.82399 57.04 8.12099 57.238 8.51699C57.4434 8.90566 57.546 9.37499 57.546 9.92499V13.5H56.006V10.134C56.006 9.64999 55.885 9.27966 55.643 9.02299C55.401 8.75899 55.071 8.62699 54.653 8.62699C54.2277 8.62699 53.8904 8.75899 53.641 9.02299C53.399 9.27966 53.278 9.64999 53.278 10.134V13.5H51.738V5.35999H53.278V8.16499C53.476 7.90099 53.74 7.69566 54.07 7.54899C54.4 7.39499 54.7667 7.31799 55.17 7.31799Z" fill="white"/>
<path d="M61.6665 13.599C61.0798 13.599 60.5518 13.4707 60.0825 13.214C59.6132 12.95 59.2428 12.5797 58.9715 12.103C58.7075 11.6263 58.5755 11.0763 58.5755 10.453C58.5755 9.82966 58.7112 9.27966 58.9825 8.80299C59.2612 8.32632 59.6388 7.95966 60.1155 7.70299C60.5922 7.43899 61.1238 7.30699 61.7105 7.30699C62.2972 7.30699 62.8288 7.43899 63.3055 7.70299C63.7822 7.95966 64.1562 8.32632 64.4275 8.80299C64.7062 9.27966 64.8455 9.82966 64.8455 10.453C64.8455 11.0763 64.7025 11.6263 64.4165 12.103C64.1378 12.5797 63.7565 12.95 63.2725 13.214C62.7958 13.4707 62.2605 13.599 61.6665 13.599ZM61.6665 12.257C61.9452 12.257 62.2055 12.191 62.4475 12.059C62.6968 11.9197 62.8948 11.7143 63.0415 11.443C63.1882 11.1717 63.2615 10.8417 63.2615 10.453C63.2615 9.87366 63.1075 9.42999 62.7995 9.12199C62.4988 8.80666 62.1285 8.64899 61.6885 8.64899C61.2485 8.64899 60.8782 8.80666 60.5775 9.12199C60.2842 9.42999 60.1375 9.87366 60.1375 10.453C60.1375 11.0323 60.2805 11.4797 60.5665 11.795C60.8598 12.103 61.2265 12.257 61.6665 12.257Z" fill="white"/>
<path d="M69.3022 7.31799C70.0282 7.31799 70.6148 7.54899 71.0621 8.01099C71.5095 8.46566 71.7332 9.10366 71.7332 9.92499V13.5H70.1931V10.134C70.1931 9.64999 70.0722 9.27966 69.8302 9.02299C69.5882 8.75899 69.2581 8.62699 68.8401 8.62699C68.4148 8.62699 68.0775 8.75899 67.8281 9.02299C67.5861 9.27966 67.4651 9.64999 67.4651 10.134V13.5H65.9251V7.40599H67.4651V8.16499C67.6705 7.90099 67.9308 7.69566 68.2462 7.54899C68.5688 7.39499 68.9208 7.31799 69.3022 7.31799Z" fill="white"/>
<path d="M78.8126 10.321C78.8126 10.541 78.7979 10.739 78.7686 10.915H74.3136C74.3503 11.355 74.5043 11.6997 74.7756 11.949C75.0469 12.1983 75.3806 12.323 75.7766 12.323C76.3486 12.323 76.7556 12.0773 76.9976 11.586H78.6586C78.4826 12.1727 78.1453 12.6567 77.6466 13.038C77.1479 13.412 76.5356 13.599 75.8096 13.599C75.2229 13.599 74.6949 13.4707 74.2256 13.214C73.7636 12.95 73.4006 12.5797 73.1366 12.103C72.8799 11.6263 72.7516 11.0763 72.7516 10.453C72.7516 9.82232 72.8799 9.26866 73.1366 8.79199C73.3933 8.31532 73.7526 7.94866 74.2146 7.69199C74.6766 7.43532 75.2083 7.30699 75.8096 7.30699C76.3889 7.30699 76.9059 7.43166 77.3606 7.68099C77.8226 7.93032 78.1783 8.28599 78.4276 8.74799C78.6843 9.20266 78.8126 9.72699 78.8126 10.321ZM77.2176 9.88099C77.2103 9.48499 77.0673 9.16966 76.7886 8.93499C76.5099 8.69299 76.1689 8.57199 75.7656 8.57199C75.3843 8.57199 75.0616 8.68932 74.7976 8.92399C74.5409 9.15132 74.3833 9.47032 74.3246 9.88099H77.2176Z" fill="white"/>
</svg>
